<svg xmlns="http://www.w3.org/2000/svg" xmlns:xlink="http://www.w3.org/1999/xlink" width="12" height="12" viewBox="0 0 12 12">
  <defs>
    <clipPath id="clip-path">
      <rect id="Rectangle_367" data-name="Rectangle 367" width="12" height="12" transform="translate(1377.916 580.916)" fill="#fff" stroke="#707070" stroke-width="1"/>
    </clipPath>
  </defs>
  <g id="calendar" transform="translate(-1377.916 -580.916)" clip-path="url(#clip-path)">
    <path id="icons8_Tear-Off_Calendar" d="M14.5,5.3V4.8a2.139,2.139,0,0,0-2.136-2.136H4.8A2.139,2.139,0,0,0,2.667,4.8V5.3ZM2.667,6.282v6.08A2.139,2.139,0,0,0,4.8,14.5h7.559A2.139,2.139,0,0,0,14.5,12.362V6.282Zm9.2,4.93a.657.657,0,0,1-.657.657H9.9a.657.657,0,0,1-.657-.657V9.9A.657.657,0,0,1,9.9,9.239h1.315a.657.657,0,0,1,.657.657Z" transform="translate(1375.333 578.333)" fill="#bfbfbf"/>
  </g>
</svg>
