<svg xmlns="http://www.w3.org/2000/svg" xmlns:xlink="http://www.w3.org/1999/xlink" width="12" height="12" viewBox="0 0 12 12">
  <defs>
    <clipPath id="clip-path">
      <rect id="Rectangle_368" data-name="Rectangle 368" width="12" height="12" transform="translate(1513 583)" fill="#fff" stroke="#707070" stroke-width="1"/>
    </clipPath>
  </defs>
  <g id="gender" transform="translate(-1513 -583)" clip-path="url(#clip-path)">
    <path id="icons8_gender" d="M9.692,0a.51.51,0,1,0,0,1.02h.784L9.114,2.381a3.164,3.164,0,0,0-1.846-.6A3.2,3.2,0,0,0,4.2,4.127,3.179,3.179,0,0,0,2.235,9.26L1.8,9.7l-.519-.519A.51.51,0,1,0,.557,9.9l.519.519L.392,11.1a.51.51,0,1,0,.721.721L1.8,11.14l.52.52a.51.51,0,1,0,.721-.721l-.52-.519.475-.475a3.162,3.162,0,0,0,1.725.513,3.2,3.2,0,0,0,3.07-2.342A3.177,3.177,0,0,0,9.84,3.1l1.382-1.382V2.55a.51.51,0,1,0,1.02,0V.51a.51.51,0,0,0-.51-.51ZM7.269,2.805A2.168,2.168,0,0,1,7.9,7.05,3.2,3.2,0,0,0,5.268,4.132,2.16,2.16,0,0,1,7.269,2.805ZM5.109,5.137A2.156,2.156,0,0,1,6.878,7.1,2.156,2.156,0,0,1,5.109,5.137Zm-1.017.055A3.2,3.2,0,0,0,6.719,8.11,2.169,2.169,0,1,1,4.092,5.192Z" transform="translate(1512.758 583.013)" fill="#bfbfbf"/>
  </g>
</svg>
