<svg xmlns="http://www.w3.org/2000/svg" width="167.83" height="191.469" viewBox="0 0 167.83 191.469">
  <g id="sign-up" transform="translate(0 0)">
    <path id="Path_10" data-name="Path 10" d="M575.471,743.16l-.214-4.8-.067-.035a2.952,2.952,0,0,0-4.182,3.453c.688,2.333,1.15,4.848,2.409,6.891a9.332,9.332,0,0,0,6.843,4.312l2.909,1.781a15.637,15.637,0,0,0-3.3-12.672,15.108,15.108,0,0,0-2.776-2.579C576.4,741.344,575.471,743.16,575.471,743.16Z" transform="translate(-495.025 -563.538)" fill="#f2f2f2"/>
    <path id="Path_11" data-name="Path 11" d="M347.73,230.592a31.033,31.033,0,0,0-22.263-9.087h-.33a31.79,31.79,0,0,1-16.026-4.328l-.506-.295.408-.42a30.985,30.985,0,0,0,5.464-7.736,9.37,9.37,0,0,1-7.562,2.443,9.594,9.594,0,0,1-7.043-4.511c-2.988-4.848-6.549-11.727-6.549-16.967a31.887,31.887,0,0,1,10.4-23.529,19.856,19.856,0,0,0,6.559-14.805l0-.4a45.048,45.048,0,0,1,1.338-10.9l.089-.353.37.013a30.445,30.445,0,0,0,7.119-.6,24.03,24.03,0,0,1-6.384-1.7l-.4-.161.135-.408c9.32-5.771,30.358-2.782,42.57-30.721,9.9-22.654,44.838,20.11,44.838,44.829,0,2.522-2.5,5.855-.628,7.523,20.2,18.021,6.262,29.594,1.868,41.238-1.043,2.763,1.218,5.8,1.218,8.785,0,.507-.013,1.031-.038,1.556l-.039.808-.674-.448a22.308,22.308,0,0,1-3.684-3.022,19.442,19.442,0,0,1-.617,16.784c-2.117,4-4.165,6.856-6.087,8.5a31.783,31.783,0,0,1-43.55-2.092Z" transform="translate(-293.324 -99.719)" fill="#e6e6e6"/>
    <path id="Path_12" data-name="Path 12" d="M542.989,486.753a.572.572,0,0,0,.566-.492,191.566,191.566,0,0,0,.267-40.164c-1.975-21.077-8.317-51.434-27.314-76.366a.572.572,0,1,0-.91.694c18.833,24.717,25.124,54.852,27.085,75.779a190.275,190.275,0,0,1-.26,39.9.573.573,0,0,0,.567.653Z" transform="translate(-454.763 -295.77)" fill="#3f3d56"/>
    <path id="Path_13" data-name="Path 13" d="M408.6,461.14a.572.572,0,0,0,.337-1.035,78.858,78.858,0,0,0-17.409-8.862c-9.6-3.516-24.21-6.7-39.246-1.919a.572.572,0,0,0,.347,1.09c14.728-4.687,29.069-1.552,38.506,1.9a77.561,77.561,0,0,1,17.13,8.713A.57.57,0,0,0,408.6,461.14Z" transform="translate(-335.881 -352.012)" fill="#3f3d56"/>
    <path id="Path_14" data-name="Path 14" d="M609.344,258.741a.572.572,0,0,0-1.008-.41,78.856,78.856,0,0,0-10.093,16.725c-4.2,9.327-8.43,23.665-4.74,39.006a.572.572,0,1,0,1.112-.268c-3.614-15.027.545-29.1,4.671-38.269a77.565,77.565,0,0,1,9.924-16.458A.57.57,0,0,0,609.344,258.741Z" transform="translate(-510.434 -214.833)" fill="#3f3d56"/>
    <path id="Path_15" data-name="Path 15" d="M652.2,349.32c.483,3.895,3.182,7.106,7.106,7.106a7.106,7.106,0,0,0,7.106-7.106c0-3.925-3.2-6.743-7.106-7.106C655.16,341.829,651.58,344.319,652.2,349.32Z" transform="translate(-554.065 -275.91)" fill="#2f2e41"/>
    <path id="Path_16" data-name="Path 16" d="M397.1,659.575h2.706l1.287-10.438H397.1Z" transform="translate(-288.571 -471.722)" fill="#ffb6b6"/>
    <path id="Path_17" data-name="Path 17" d="M690.08,785.417H698.4v-.105a3.239,3.239,0,0,0-3.239-3.239h0l-1.52-1.153-2.836,1.153h-.726Z" transform="translate(-581.643 -594.742)" fill="#2f2e41"/>
    <path id="Path_18" data-name="Path 18" d="M358.1,659.575h2.706l1.287-10.438H358.1Z" transform="translate(-260.23 -471.722)" fill="#ffb6b6"/>
    <path id="Path_19" data-name="Path 19" d="M651.08,785.417H659.4v-.105a3.239,3.239,0,0,0-3.239-3.239h0l-1.52-1.153-2.836,1.153h-.726Z" transform="translate(-553.302 -594.742)" fill="#2f2e41"/>
    <path id="Path_20" data-name="Path 20" d="M665.8,542.169l1.913,6.559-2.254,27.78s1.161,1.737.341,1.737-1.871.385-1.209,1.422-1.6,4.761-1.6,4.761l-3.2,19.781-4.08-.06s-2.074-1.156-.91-2.324,1.984-1.169.891-2.262-1.093-.764-1.093-1.612-1.1-11.21,1.5-15.185l-.783-16.206-1.843,15.9-3.8,21.206-3.931-.032s-1.816-1.75-1.812-3.045,1.122-1.4.289-2.169-.833-12.536,1.627-19.078c0,0,1.391-3.655,0-4.908a1.836,1.836,0,0,1,0-2.686s2.209-.8,0-3.1-.012-18.571-.012-18.571-2.417-6.568.031-9.15S665.8,542.169,665.8,542.169Z" transform="translate(-547.952 -419.689)" fill="#2f2e41"/>
    <path id="Path_21" data-name="Path 21" d="M596.189,567.273l3.413-8.249,2.689,1.494-1.624,8.391a2.989,2.989,0,1,1-4.479-1.636Z" transform="translate(-512.419 -433.492)" fill="#ffb6b6"/>
    <path id="Path_22" data-name="Path 22" d="M789.526,335.109l-5.194,7.261-2.281-2.065,3.483-7.805a2.989,2.989,0,1,1,3.991,2.609Z" transform="translate(-648.478 -266.559)" fill="#ffb6b6"/>
    <path id="Path_23" data-name="Path 23" d="M636.341,405.686c3.369,5.225-13.565,11.856-20.062,9.194-1.138-.466-5.051-2.006-2.376-4.141s-.31-2.435-.381-3.825c-.047-.929.672-2.967-.078-2.88s-1.629-1.2.006-1.75.018-1.057.032-1.582c.156-5.727,4.551-14.837,4.551-14.837l-7.918,20.24s.059,3.5-.951,2.432-.936,2.393-.936,2.393-1.5,1.048-.638,1.631-.93,2.376-.93,2.376l-4.183-.3s.065-3.108.78-3.795a1.844,1.844,0,0,0,.363-1.769s1.86-1.646.613-2.983c-1.6-1.719,4.243-30.755,6.26-30.468a7.686,7.686,0,0,1,5.488-5.863l4.518-1.244.8-3.183h6.362l1.108,2.092,4.837,2.183c.911-1.285,1.592-2.64,5.323-3.079,0,0,10.053-9.147,9.562-9.861s1.068-2.386,1.068-2.386,1.331-.436.58-.668.669-.77.669-.77,1.315-.345.695-.8,2.069-.754,2.069-.754l3.489,2.847-.705,1.2s.43,1.628-.131,1.034-.667,1.131-.667,1.131a3.239,3.239,0,0,1-1.986,2.458c-1.7.569-2.988,5.976-2.988,5.976a39.672,39.672,0,0,1-14.343,11.953C638.426,380.392,636.341,405.686,636.341,405.686Z" transform="translate(-517.981 -282.534)" fill="#00bfa6"/>
    <circle id="Ellipse_5" data-name="Ellipse 5" cx="6.301" cy="6.301" r="6.301" transform="translate(99.725 68.336)" fill="#ffb6b6"/>
    <path id="Path_24" data-name="Path 24" d="M656.673,350.294c.2,1.369,1.367,3.28,1.093,3.28s-2.216-5.645-.273-6.013c1.409-.267,1.725-.033,3.042-.6l-.186.175c.872.634,2.085.243,3.08-.169s2.208-.8,3.083-.169a4.916,4.916,0,0,1,1.123,1.67c.342.588.973,1.142,1.623.962a1.285,1.285,0,0,0,.82-1.271c0-.541-.707-1.056-.47-1.541.7-1.439.071-2.42-1.462-3.1q-.836-.127-1.673-.26a4.743,4.743,0,0,1,1.049-1.055,2.4,2.4,0,0,0-.847-1.085,2.659,2.659,0,0,0-1.514-.219l-3.457.18a6.1,6.1,0,0,0-2.5.486,4.928,4.928,0,0,0-2.028,2.413C656.162,346.158,656.323,347.913,656.673,350.294Z" transform="translate(-557.172 -274.97)" fill="#2f2e41"/>
    <path id="Path_25" data-name="Path 25" d="M560.611,798.242l61.973.084a.325.325,0,0,0,0-.651l-61.973-.084a.325.325,0,0,0,0,.651Z" transform="translate(-487.322 -606.857)" fill="#cacaca"/>
    <ellipse id="Ellipse_6" data-name="Ellipse 6" cx="1.437" cy="2.065" rx="1.437" ry="2.065" transform="matrix(0.144, -0.99, 0.99, 0.144, 46.58, 163.845)" fill="#e6e6e6"/>
    <ellipse id="Ellipse_7" data-name="Ellipse 7" cx="1.437" cy="2.065" rx="1.437" ry="2.065" transform="matrix(0.144, -0.99, 0.99, 0.144, 60.019, 162.534)" fill="#3f3d56"/>
    <ellipse id="Ellipse_8" data-name="Ellipse 8" cx="1.437" cy="2.065" rx="1.437" ry="2.065" transform="matrix(0.144, -0.99, 0.99, 0.144, 42.9, 152.965)" fill="#ff6584"/>
    <ellipse id="Ellipse_9" data-name="Ellipse 9" cx="1.305" cy="0.908" rx="1.305" ry="0.908" transform="matrix(0.008, -1, 1, 0.008, 39.529, 148.973)" fill="#e6e6e6"/>
    <ellipse id="Ellipse_10" data-name="Ellipse 10" cx="1.305" cy="0.908" rx="1.305" ry="0.908" transform="matrix(0.008, -1, 1, 0.008, 37.548, 140.673)" fill="#3f3d56"/>
    <ellipse id="Ellipse_11" data-name="Ellipse 11" cx="1.305" cy="0.908" rx="1.305" ry="0.908" transform="matrix(0.008, -1, 1, 0.008, 52.948, 155.282)" fill="#e6e6e6"/>
    <ellipse id="Ellipse_12" data-name="Ellipse 12" cx="1.305" cy="0.908" rx="1.305" ry="0.908" transform="matrix(0.008, -1, 1, 0.008, 46.453, 158.524)" fill="#ff6584"/>
    <ellipse id="Ellipse_13" data-name="Ellipse 13" cx="1.305" cy="0.908" rx="1.305" ry="0.908" transform="matrix(0.008, -1, 1, 0.008, 55.494, 164.517)" fill="#3f3d56"/>
    <ellipse id="Ellipse_14" data-name="Ellipse 14" cx="1.437" cy="2.065" rx="1.437" ry="2.065" transform="matrix(0.144, -0.99, 0.99, 0.144, 149.89, 121.756)" fill="#e6e6e6"/>
    <ellipse id="Ellipse_15" data-name="Ellipse 15" cx="1.437" cy="2.065" rx="1.437" ry="2.065" transform="matrix(0.144, -0.99, 0.99, 0.144, 163.329, 120.445)" fill="#3f3d56"/>
    <ellipse id="Ellipse_16" data-name="Ellipse 16" cx="1.437" cy="2.065" rx="1.437" ry="2.065" transform="matrix(0.144, -0.99, 0.99, 0.144, 146.21, 110.876)" fill="#ff6584"/>
    <ellipse id="Ellipse_17" data-name="Ellipse 17" cx="1.305" cy="0.908" rx="1.305" ry="0.908" transform="matrix(0.008, -1, 1, 0.008, 142.839, 106.884)" fill="#e6e6e6"/>
    <ellipse id="Ellipse_18" data-name="Ellipse 18" cx="1.305" cy="0.908" rx="1.305" ry="0.908" transform="matrix(0.008, -1, 1, 0.008, 140.859, 98.583)" fill="#3f3d56"/>
    <ellipse id="Ellipse_19" data-name="Ellipse 19" cx="1.305" cy="0.908" rx="1.305" ry="0.908" transform="matrix(0.008, -1, 1, 0.008, 156.258, 113.192)" fill="#e6e6e6"/>
    <ellipse id="Ellipse_20" data-name="Ellipse 20" cx="1.305" cy="0.908" rx="1.305" ry="0.908" transform="matrix(0.008, -1, 1, 0.008, 149.764, 116.435)" fill="#ff6584"/>
    <ellipse id="Ellipse_21" data-name="Ellipse 21" cx="1.305" cy="0.908" rx="1.305" ry="0.908" transform="matrix(0.008, -1, 1, 0.008, 158.804, 122.428)" fill="#3f3d56"/>
    <ellipse id="Ellipse_22" data-name="Ellipse 22" cx="1.437" cy="2.065" rx="1.437" ry="2.065" transform="matrix(0.144, -0.99, 0.99, 0.144, 99.875, 43.863)" fill="#fff"/>
    <ellipse id="Ellipse_23" data-name="Ellipse 23" cx="1.437" cy="2.065" rx="1.437" ry="2.065" transform="matrix(0.144, -0.99, 0.99, 0.144, 113.314, 42.552)" fill="#3f3d56"/>
    <ellipse id="Ellipse_24" data-name="Ellipse 24" cx="1.437" cy="2.065" rx="1.437" ry="2.065" transform="matrix(0.144, -0.99, 0.99, 0.144, 96.195, 32.983)" fill="#ff6584"/>
    <ellipse id="Ellipse_25" data-name="Ellipse 25" cx="1.305" cy="0.908" rx="1.305" ry="0.908" transform="matrix(0.008, -1, 1, 0.008, 92.824, 28.991)" fill="#e6e6e6"/>
    <ellipse id="Ellipse_26" data-name="Ellipse 26" cx="1.305" cy="0.908" rx="1.305" ry="0.908" transform="matrix(0.008, -1, 1, 0.008, 90.843, 20.69)" fill="#3f3d56"/>
    <ellipse id="Ellipse_27" data-name="Ellipse 27" cx="1.305" cy="0.908" rx="1.305" ry="0.908" transform="matrix(0.008, -1, 1, 0.008, 106.243, 35.299)" fill="#e6e6e6"/>
    <ellipse id="Ellipse_28" data-name="Ellipse 28" cx="1.305" cy="0.908" rx="1.305" ry="0.908" transform="matrix(0.008, -1, 1, 0.008, 99.749, 38.542)" fill="#ff6584"/>
    <ellipse id="Ellipse_29" data-name="Ellipse 29" cx="1.305" cy="0.908" rx="1.305" ry="0.908" transform="matrix(0.008, -1, 1, 0.008, 108.789, 44.535)" fill="#3f3d56"/>
  </g>
</svg>
